<?xml version="1.0" ?><svg id="Layer_1" style="enable-background:new 0 0 100 100;" version="1.1" viewBox="0 0 100 100" xml:space="preserve" xmlns="http://www.w3.org/2000/svg" xmlns:xlink="http://www.w3.org/1999/xlink"><g><path d="M50,50.4c-2.5,0-4.9-0.5-7.1-1.6c-5.9-2.7-9.7-8.7-9.7-15.2c0-9.2,7.5-16.7,16.8-16.7s16.8,7.5,16.8,16.7   c0,6.5-3.8,12.4-9.7,15.2C54.9,49.9,52.5,50.4,50,50.4z M50,18.9c-8.1,0-14.8,6.6-14.8,14.7c0,5.7,3.3,11,8.5,13.4   c3.9,1.9,8.6,1.9,12.5,0c5.2-2.4,8.5-7.7,8.5-13.4C64.8,25.5,58.1,18.9,50,18.9z"/></g><g><path d="M48.5,83.1c-6.5,0-12.2-0.1-16.5-1.6c-5.1-1.8-7.6-5.7-7.6-11.7c0-10.6,7.7-20,18.7-22.8l0.3-0.1l0.3,0.2   c4,1.9,8.6,1.9,12.5,0l0.3-0.2l0.3,0.1c6.9,1.8,12.7,6.2,15.9,12.1l0.9,1.6l-1.8-0.1c-0.7-0.1-1.5,0-2.3,0.1   c-5.6,0.7-9.9,5.6-9.9,11.3c0,3.5,1.6,6.7,4.3,8.9l1.8,1.4l-2.3,0.3c-3.8,0.6-8.2,0.5-12.9,0.6h-1.4C49,83.1,48.8,83.1,48.5,83.1z    M43.2,49c-9.9,2.7-16.8,11.2-16.8,20.8c0,5.2,1.9,8.3,6.3,9.8c4.2,1.5,10.2,1.5,16.6,1.5h1.4c3.8,0,7.3,0,10.5-0.3   c-2.2-2.4-3.4-5.6-3.4-8.9c0-6.7,5-12.4,11.6-13.3c0.3,0,0.6-0.1,0.8-0.1c-3-4.6-7.8-8-13.4-9.6C52.5,50.9,47.5,50.9,43.2,49z"/></g><g><path d="M71.1,85.3c-2.5,0-4.9-0.7-7-2c-0.5-0.3-0.9-0.6-1.3-0.9c-3.2-2.5-5.1-6.4-5.1-10.5c0-6.7,5-12.4,11.6-13.3   c0.9-0.1,1.8-0.1,2.7-0.1c7,0.5,12.5,6.3,12.5,13.3C84.5,79.3,78.5,85.3,71.1,85.3z M71.1,60.6c-0.5,0-1,0-1.5,0.1   c-5.6,0.7-9.9,5.6-9.9,11.3c0,3.5,1.6,6.7,4.3,8.9c0.3,0.3,0.7,0.5,1.1,0.8c1.8,1.1,3.9,1.7,6,1.7c6.3,0,11.4-5.1,11.4-11.4   c0-6-4.7-11-10.6-11.4C71.6,60.6,71.4,60.6,71.1,60.6z"/></g><g><path d="M71.1,80.2c-0.6,0-1-0.4-1-1V64.6c0-0.6,0.4-1,1-1s1,0.4,1,1v14.6C72.1,79.8,71.7,80.2,71.1,80.2z"/></g><g><path d="M78.4,72.9H63.8c-0.6,0-1-0.4-1-1s0.4-1,1-1h14.6c0.6,0,1,0.4,1,1S79,72.9,78.4,72.9z"/></g></svg>