<?xml version="1.0" encoding="UTF-8" standalone="no"?>
<svg
   xmlns:dc="http://purl.org/dc/elements/1.1/"
   xmlns:cc="http://creativecommons.org/ns#"
   xmlns:rdf="http://www.w3.org/1999/02/22-rdf-syntax-ns#"
   xmlns:svg="http://www.w3.org/2000/svg"
   xmlns="http://www.w3.org/2000/svg"
   xmlns:sodipodi="http://sodipodi.sourceforge.net/DTD/sodipodi-0.dtd"
   xmlns:inkscape="http://www.inkscape.org/namespaces/inkscape"
   width="210mm"
   height="36mm"
   viewBox="0 0 210 36"
   version="1.1"
   id="svg2368"
   inkscape:version="1.0.2-2 (e86c870879, 2021-01-15)"
   sodipodi:docname="logo.svg">
  <metadata
     id="metadata141">
    <rdf:RDF>
      <cc:Work
         rdf:about="">
        <dc:format>image/svg+xml</dc:format>
        <dc:type
           rdf:resource="http://purl.org/dc/dcmitype/StillImage" />
        <dc:title />
      </cc:Work>
    </rdf:RDF>
  </metadata>
  <sodipodi:namedview
     id="namedview2370"
     pagecolor="#ffffff"
     bordercolor="#000000"
     borderopacity="0.25"
     inkscape:showpageshadow="2"
     inkscape:pageopacity="0.0"
     inkscape:pagecheckerboard="0"
     inkscape:deskcolor="#d1d1d1"
     inkscape:document-units="mm"
     showgrid="false"
     inkscape:zoom="0.70688816"
     inkscape:cx="533.94044"
     inkscape:cy="243.3039"
     inkscape:window-width="1366"
     inkscape:window-height="745"
     inkscape:window-x="-8"
     inkscape:window-y="-8"
     inkscape:window-maximized="1"
     inkscape:current-layer="layer1"
     showguides="true"
     inkscape:document-rotation="0" />
  <defs
     id="defs2365">
    <inkscape:path-effect
       effect="bspline"
       id="path-effect36114"
       is_visible="true"
       lpeversion="1"
       weight="33.333333"
       steps="2"
       helper_size="0"
       apply_no_weight="true"
       apply_with_weight="true"
       only_selected="false" />
    <inkscape:path-effect
       effect="bspline"
       id="path-effect36122"
       is_visible="true"
       lpeversion="1"
       weight="33.333333"
       steps="2"
       helper_size="0"
       apply_no_weight="true"
       apply_with_weight="true"
       only_selected="false" />
    <inkscape:path-effect
       effect="bspline"
       id="path-effect35964"
       is_visible="true"
       lpeversion="1"
       weight="33.333333"
       steps="2"
       helper_size="0"
       apply_no_weight="true"
       apply_with_weight="true"
       only_selected="false" />
    <inkscape:path-effect
       effect="bspline"
       id="path-effect35972"
       is_visible="true"
       lpeversion="1"
       weight="33.333333"
       steps="2"
       helper_size="0"
       apply_no_weight="true"
       apply_with_weight="true"
       only_selected="false" />
    <inkscape:path-effect
       effect="bspline"
       id="path-effect22342"
       is_visible="true"
       lpeversion="1"
       weight="33.333333"
       steps="2"
       helper_size="0"
       apply_no_weight="true"
       apply_with_weight="true"
       only_selected="false" />
    <inkscape:path-effect
       effect="bspline"
       id="path-effect22346"
       is_visible="true"
       lpeversion="1"
       weight="33.333333"
       steps="2"
       helper_size="0"
       apply_no_weight="true"
       apply_with_weight="true"
       only_selected="false" />
    <inkscape:path-effect
       effect="bspline"
       id="path-effect35964-6"
       is_visible="true"
       lpeversion="1"
       weight="33.333333"
       steps="2"
       helper_size="0"
       apply_no_weight="true"
       apply_with_weight="true"
       only_selected="false" />
    <inkscape:path-effect
       effect="bspline"
       id="path-effect35972-4"
       is_visible="true"
       lpeversion="1"
       weight="33.333333"
       steps="2"
       helper_size="0"
       apply_no_weight="true"
       apply_with_weight="true"
       only_selected="false" />
  </defs>
  <g
     inkscape:label="Camada 1"
     inkscape:groupmode="layer"
     id="layer1">
    <g
       id="g87"
       transform="matrix(1.2584041,0,0,1.2543322,-18.749426,-26.288347)">
      <g
         aria-label="caricacto"
         transform="scale(0.99802912,1.0019748)"
         id="text176"
         style="font-style:normal;font-variant:normal;font-weight:normal;font-stretch:normal;font-size:27.9598px;font-family:comfortaa;-inkscape-font-specification:'comfortaa, Normal';font-variant-ligatures:normal;font-variant-caps:normal;font-variant-numeric:normal;font-variant-east-asian:normal;fill:#000000;stroke-width:0.374459">
        <path
           d="m 23.118572,44.35404 q -2.180864,0 -3.914372,-1.006553 -1.733508,-1.034512 -2.74006,-2.79598 -0.978593,-1.789427 -0.978593,-3.970292 0,-2.236784 0.950633,-3.998251 0.950633,-1.789427 2.628221,-2.79598 1.677588,-1.006553 3.774573,-1.006553 3.494975,0 5.67584,2.684141 0.223678,0.251638 0.223678,0.587156 0,0.447357 -0.475316,0.782874 -0.251639,0.167759 -0.531237,0.167759 -0.419397,0 -0.810834,-0.419397 -0.838794,-0.922673 -1.845347,-1.37003 -1.006553,-0.475317 -2.236784,-0.475317 -1.537789,0 -2.74006,0.754915 -1.202272,0.726955 -1.873307,2.069025 -0.643075,1.34207 -0.643075,3.019658 0,1.649629 0.698995,2.991699 0.698995,1.314111 1.957186,2.069025 1.258191,0.754915 2.879859,0.754915 2.236784,0 3.606815,-1.202271 0.363477,-0.307558 0.754914,-0.307558 0.335518,0 0.615116,0.223678 0.391437,0.335518 0.391437,0.754915 0,0.363477 -0.279598,0.615115 -2.013106,1.873307 -5.088684,1.873307 z"
           style="stroke-width:0.374459"
           id="path28" />
        <path
           d="m 39.922378,28.780431 q 2.180865,0 3.942332,1.034513 1.789428,1.006552 2.79598,2.79598 1.034513,1.789427 1.034513,3.970291 v 6.570554 q 0,0.447356 -0.307558,0.754914 -0.307558,0.307558 -0.782874,0.307558 -0.475317,0 -0.782875,-0.279598 -0.307557,-0.307558 -0.307557,-0.782874 v -1.677588 q -0.978593,1.34207 -2.488423,2.124944 -1.509829,0.754915 -3.327216,0.754915 -2.124945,0 -3.858452,-1.006553 -1.705548,-1.034512 -2.712101,-2.79598 -0.978593,-1.789427 -0.978593,-3.970292 0,-2.180864 1.006553,-3.970291 1.034512,-1.789428 2.79598,-2.79598 1.789427,-1.034513 3.970291,-1.034513 z m 0,13.616423 q 1.593709,0 2.87986,-0.754915 1.286151,-0.754914 2.013106,-2.069025 0.754914,-1.34207 0.754914,-2.991699 0,-1.649628 -0.754914,-2.963738 -0.726955,-1.342071 -2.013106,-2.096985 -1.286151,-0.782875 -2.87986,-0.782875 -1.593708,0 -2.907819,0.782875 -1.286151,0.754914 -2.041065,2.096985 -0.726955,1.31411 -0.726955,2.963738 0,1.649629 0.726955,2.991699 0.754914,1.314111 2.041065,2.069025 1.314111,0.754915 2.907819,0.754915 z"
           style="stroke-width:0.374459"
           id="path30" />
        <path
           d="m 58.795195,28.752471 q 1.174311,0 1.845346,0.307558 0.698995,0.307558 0.698995,0.866754 0,0.167759 -0.02796,0.251638 -0.11184,0.391437 -0.363478,0.531236 -0.223678,0.139799 -0.643075,0.139799 -0.251638,0 -0.866754,-0.05592 -0.223678,-0.02796 -0.671035,-0.02796 -2.096985,0 -3.439056,1.118392 -1.31411,1.118392 -1.31411,2.907819 v 8.359981 q 0,0.503276 -0.279598,0.782874 -0.279598,0.279598 -0.782875,0.279598 -0.503276,0 -0.782874,-0.279598 -0.279598,-0.279598 -0.279598,-0.782874 V 29.982702 q 0,-0.503276 0.279598,-0.782874 0.279598,-0.279598 0.782874,-0.279598 0.503277,0 0.782875,0.279598 0.279598,0.279598 0.279598,0.782874 v 1.230232 q 0.810834,-1.174312 2.069025,-1.817387 1.258191,-0.643076 2.712101,-0.643076 z"
           style="stroke-width:0.374459"
           id="path32" />
        <path
           d="m 66.232451,44.214241 q -0.475317,0 -0.782874,-0.307558 -0.307558,-0.307558 -0.307558,-0.782874 V 30.010662 q 0,-0.475316 0.307558,-0.782874 0.307557,-0.307558 0.782874,-0.307558 0.475317,0 0.754915,0.307558 0.307557,0.307558 0.307557,0.782874 v 13.113147 q 0,0.475316 -0.307557,0.782874 -0.279598,0.307558 -0.754915,0.307558 z m -0.02796,-18.20183 q -0.643075,0 -1.090432,-0.447357 -0.419397,-0.447357 -0.419397,-1.090432 0,-0.671035 0.447357,-1.090433 0.447357,-0.419397 1.090432,-0.419397 0.615116,0 1.062472,0.419397 0.447357,0.419398 0.447357,1.090433 0,0.643075 -0.447357,1.090432 -0.447356,0.447357 -1.090432,0.447357 z"
           style="stroke-width:0.374459"
           id="path34" />
        <path
           d="m 79.597225,44.35404 q -2.180864,0 -3.914372,-1.006553 -1.733508,-1.034512 -2.74006,-2.79598 Q 71.9642,38.76208 71.9642,36.581215 q 0,-2.236784 0.950633,-3.998251 0.950633,-1.789427 2.628221,-2.79598 1.677588,-1.006553 3.774573,-1.006553 3.494975,0 5.67584,2.684141 0.223678,0.251638 0.223678,0.587156 0,0.447357 -0.475316,0.782874 -0.251639,0.167759 -0.531237,0.167759 -0.419397,0 -0.810834,-0.419397 -0.838794,-0.922673 -1.845347,-1.37003 -1.006553,-0.475317 -2.236784,-0.475317 -1.537789,0 -2.74006,0.754915 -1.202272,0.726955 -1.873307,2.069025 -0.643075,1.34207 -0.643075,3.019658 0,1.649629 0.698995,2.991699 0.698995,1.314111 1.957186,2.069025 1.258191,0.754915 2.879859,0.754915 2.236784,0 3.606814,-1.202271 0.363478,-0.307558 0.754915,-0.307558 0.335518,0 0.615116,0.223678 0.391437,0.335518 0.391437,0.754915 0,0.363477 -0.279598,0.615115 -2.013106,1.873307 -5.088684,1.873307 z"
           style="stroke-width:0.374459"
           id="path36" />
        <path
           d="m 96.401026,28.780431 q 2.180864,0 3.942334,1.034513 1.78942,1.006552 2.79598,2.79598 1.03451,1.789427 1.03451,3.970291 v 6.570554 q 0,0.447356 -0.30756,0.754914 -0.30756,0.307558 -0.78287,0.307558 -0.47532,0 -0.78288,-0.279598 -0.30755,-0.307558 -0.30755,-0.782874 v -1.677588 q -0.9786,1.34207 -2.488426,2.124944 -1.50983,0.754915 -3.327217,0.754915 -2.124945,0 -3.858452,-1.006553 -1.705548,-1.034512 -2.712101,-2.79598 -0.978593,-1.789427 -0.978593,-3.970292 0,-2.180864 1.006553,-3.970291 1.034512,-1.789428 2.79598,-2.79598 1.789427,-1.034513 3.970292,-1.034513 z m 0,13.616423 q 1.593708,0 2.879859,-0.754915 1.286155,-0.754914 2.013105,-2.069025 0.75492,-1.34207 0.75492,-2.991699 0,-1.649628 -0.75492,-2.963738 -0.72695,-1.342071 -2.013105,-2.096985 -1.286151,-0.782875 -2.879859,-0.782875 -1.593709,0 -2.90782,0.782875 -1.28615,0.754914 -2.041065,2.096985 -0.726955,1.31411 -0.726955,2.963738 0,1.649629 0.726955,2.991699 0.754915,1.314111 2.041065,2.069025 1.314111,0.754915 2.90782,0.754915 z"
           style="stroke-width:0.374459"
           id="path38" />
        <path
           d="m 115.18997,44.35404 q -2.18087,0 -3.91437,-1.006553 -1.73351,-1.034512 -2.74006,-2.79598 -0.9786,-1.789427 -0.9786,-3.970292 0,-2.236784 0.95064,-3.998251 0.95063,-1.789427 2.62822,-2.79598 1.67759,-1.006553 3.77457,-1.006553 3.49498,0 5.67584,2.684141 0.22368,0.251638 0.22368,0.587156 0,0.447357 -0.47532,0.782874 -0.25164,0.167759 -0.53123,0.167759 -0.4194,0 -0.81084,-0.419397 -0.83879,-0.922673 -1.84535,-1.37003 -1.00655,-0.475317 -2.23678,-0.475317 -1.53779,0 -2.74006,0.754915 -1.20227,0.726955 -1.87331,2.069025 -0.64307,1.34207 -0.64307,3.019658 0,1.649629 0.69899,2.991699 0.699,1.314111 1.95719,2.069025 1.25819,0.754915 2.87986,0.754915 2.23678,0 3.60681,-1.202271 0.36348,-0.307558 0.75492,-0.307558 0.33551,0 0.61511,0.223678 0.39144,0.335518 0.39144,0.754915 0,0.363477 -0.2796,0.615115 -2.0131,1.873307 -5.08868,1.873307 z"
           style="stroke-width:0.374459"
           id="path40" />
        <path
           d="m 131.77009,42.061336 q 0.44736,0 0.72695,0.307558 0.2796,0.307558 0.2796,0.782875 0,0.447356 -0.33551,0.754914 -0.33552,0.307558 -0.8388,0.307558 h -0.58715 q -1.48187,0 -2.65619,-0.698995 -1.17431,-0.726955 -1.84534,-1.929226 -0.64308,-1.230231 -0.64308,-2.768021 v -7.465266 h -1.81738 q -0.44736,0 -0.72696,-0.251639 -0.25164,-0.279598 -0.25164,-0.671035 0,-0.419397 0.25164,-0.671035 0.2796,-0.279598 0.72696,-0.279598 h 1.81738 v -4.333769 q 0,-0.475317 0.2796,-0.782874 0.30756,-0.307558 0.78287,-0.307558 0.47532,0 0.78288,0.307558 0.30756,0.307557 0.30756,0.782874 v 4.333769 h 3.15945 q 0.44736,0 0.699,0.279598 0.2796,0.251638 0.2796,0.671035 0,0.391437 -0.2796,0.671035 -0.25164,0.251639 -0.699,0.251639 h -3.15945 v 7.465266 q 0,1.42595 0.83879,2.348624 0.83879,0.894713 2.15291,0.894713 z"
           style="stroke-width:0.374459"
           id="path42" />
        <path
           d="m 143.23357,44.35404 q -2.20883,0 -3.99825,-1.006553 -1.76147,-1.006553 -2.76802,-2.76802 -1.00656,-1.789427 -1.00656,-3.998252 0,-2.208824 1.00656,-3.998251 1.00655,-1.789427 2.76802,-2.79598 1.78942,-1.006553 3.99825,-1.006553 2.20882,0 3.97029,1.006553 1.76147,1.006553 2.76802,2.79598 1.03451,1.789427 1.03451,3.998251 0,2.208825 -1.00655,3.998252 -1.00655,1.761467 -2.79598,2.76802 -1.76147,1.006553 -3.97029,1.006553 z m 0,-1.957186 q 1.62167,0 2.90782,-0.754915 1.28615,-0.754914 2.0131,-2.069025 0.72696,-1.34207 0.72696,-2.991699 0,-1.677588 -0.72696,-2.991698 -0.72695,-1.342071 -2.0131,-2.096985 -1.28615,-0.754915 -2.90782,-0.754915 -1.59371,0 -2.90782,0.754915 -1.28615,0.754914 -2.04107,2.096985 -0.72695,1.31411 -0.72695,2.991698 0,1.649629 0.72695,2.991699 0.75492,1.314111 2.04107,2.069025 1.31411,0.754915 2.90782,0.754915 z"
           style="stroke-width:0.374459"
           id="path44" />
      </g>
      <g
         id="g158"
         transform="matrix(0.93879437,0,0,0.86473094,16.63955,7.1389649)"
         inkscape:export-xdpi="96"
         inkscape:export-ydpi="96">
        <g
           id="g15450"
           transform="matrix(0.32851033,0,0,0.25902814,138.49585,-13.530789)"
           style="fill:#338000">
          <g
             aria-label="o"
             id="text878"
             style="font-size:10.5833px;line-height:1.25;fill:#338000;stroke-width:0.264583"
             transform="matrix(10.686351,0,0,9.9912854,373.65984,-1678.7367)">
            <path
               d="m -24.668385,186.67592 c -0.682926,1.35299 -2.357696,1.39305 -3.169083,1.39305 -0.500943,0 -2.967204,0.0139 -3.354809,-1.48872 0.893352,-0.11895 0.09734,-0.89578 -0.02083,-1.97736 1.138703,-0.0245 0.36878,-0.37832 0.451495,-1.43683 0.660495,0.56829 0.831762,-0.10068 1.440689,-0.46021 0.950639,-3e-4 0.528308,0.007 1.357402,0.006 0.805327,-7.9e-4 0.653339,-0.0137 1.290335,0.0969 0.657612,0.23223 0.809918,0.78934 1.383449,0.33394 0.0095,0.93589 -0.569357,1.6802 0.68431,1.52236 -0.186038,1.08427 -0.942695,1.64601 -0.06296,2.01087 z m -5.004633,-1.28138 c 0.12943,0.92442 0.117518,0.84121 0.404591,1.2224 0.26811,0.38805 0.873572,0.67948 1.452126,0.67948 0.571498,0 1.069358,-0.20794 1.337469,-0.59599 0.26811,-0.39511 0.506901,-1.04653 0.535921,-1.73115 0.02042,-0.48166 -0.345867,-1.04894 -0.613977,-1.42993 -0.268111,-0.381 -0.691443,-0.5715 -1.269996,-0.5715 -0.578554,0 -1.324459,0.5715 -1.324459,0.5715 0,0 -0.692282,0.63666 -0.521675,1.85519 z"
               id="path2214"
               sodipodi:nodetypes="ssccccsccccscscscscsc"
               style="fill:#338000" />
          </g>
          <path
             id="path13327"
             style="fill:#338000;stroke:none;stroke-width:0.865513;stroke-miterlimit:4;stroke-dasharray:none;stroke-opacity:1"
             d="m 77.094506,147.81593 a 21.860248,23.553642 0 0 0 -22.230683,21.13979 21.860248,23.553642 0 0 0 19.386931,25.82375 21.860248,23.553642 0 0 0 24.077603,-20.74085 l 0.0512,-0.53434 A 21.860248,23.553642 0 0 0 78.720805,147.9198 21.860248,23.553642 0 0 0 77.094546,147.81593 Z" />
        </g>
        <path
           id="rect3068"
           style="fill:#c87137;stroke:none;stroke-width:0.0638626;stroke-miterlimit:4;stroke-dasharray:none;stroke-opacity:1"
           d="m 150.57966,36.370472 h 24.5976 c 0.0587,0 0.10603,0.04729 0.10603,0.106024 v 2.332534 c 0,0.05874 -0.0473,0.106024 -0.10603,0.106024 h -24.5976 c -0.0587,0 -0.10603,-0.04729 -0.10603,-0.106024 v -2.332534 c 0,-0.05874 0.0473,-0.106024 0.10603,-0.106024 z" />
        <g
           id="g3216"
           transform="matrix(0.2788757,0,0,0.2788757,112.31753,-19.21564)"
           style="stroke:none">
          <path
             id="rect2962"
             style="fill:#c87137;stroke:none;stroke-width:0.195915"
             transform="matrix(1,0,-0.67939964,0.73376844,0,0)"
             d="m 373.97839,284.07681 h 36.62871 c 0.2097,0 0.37851,0.16882 0.37851,0.37851 v 24.98169 c 0,0.2097 -0.16881,0.37852 -0.37851,0.37852 h -36.62871 c -0.20969,0 -0.37851,-0.16882 -0.37851,-0.37852 v -24.98169 c 0,-0.20969 0.16882,-0.37851 0.37851,-0.37851 z" />
          <path
             id="rect3044"
             style="fill:#c87137;stroke:none;stroke-width:0.195915"
             transform="matrix(-1,0,0.67939967,0.73376841,0,0)"
             d="m 10.370064,284.07681 h 36.62871 c 0.209694,0 0.37851,0.16882 0.37851,0.37851 v 24.9817 c 0,0.20969 -0.168816,0.37851 -0.37851,0.37851 h -36.62871 c -0.209695,0 -0.3785107,-0.16882 -0.3785107,-0.37851 v -24.9817 c 0,-0.20969 0.1688157,-0.37851 0.3785107,-0.37851 z" />
        </g>
        <path
           id="path17221"
           style="fill:#db2d2a;fill-opacity:1;stroke:none;stroke-width:0.100423px;stroke-linecap:butt;stroke-linejoin:miter;stroke-opacity:1"
           d="m 163.24321,16.362749 -1.50505,2.885909 c -2.20479,-1.724066 -1.63335,-1.248176 -2.52934,-1.967079 l 2.36859,3.666552 -4.58791,-3.558729 2.39973,3.235066 -2.75356,0.215839 3.67122,2.63562 -5.06669,0.383998 7.70387,1.509323 z m -0.29914,9.006499 7.70385,-1.509323 -4.8123,-0.36473 4.09647,-2.654888 -2.73332,-0.215839 2.87715,-3.235066 -5.12059,3.558729 2.90808,-3.666552 -3.01047,2.156841 -1.60856,-3.075671 z" />
      </g>
    </g>
  </g>
</svg>
