<?xml version="1.0" encoding="UTF-8" standalone="no"?>
<svg
   xmlns:dc="http://purl.org/dc/elements/1.1/"
   xmlns:cc="http://creativecommons.org/ns#"
   xmlns:rdf="http://www.w3.org/1999/02/22-rdf-syntax-ns#"
   xmlns:svg="http://www.w3.org/2000/svg"
   xmlns="http://www.w3.org/2000/svg"
   xmlns:sodipodi="http://sodipodi.sourceforge.net/DTD/sodipodi-0.dtd"
   xmlns:inkscape="http://www.inkscape.org/namespaces/inkscape"
   width="35mm"
   height="35mm"
   viewBox="0 0 35 35"
   version="1.1"
   id="svg118"
   inkscape:version="1.0.2-2 (e86c870879, 2021-01-15)"
   sodipodi:docname="logopeq_caricacto.svg">
  <defs
     id="defs112" />
  <sodipodi:namedview
     id="base"
     pagecolor="#ffffff"
     bordercolor="#666666"
     borderopacity="1.0"
     inkscape:pageopacity="0.0"
     inkscape:pageshadow="2"
     inkscape:zoom="0.95849625"
     inkscape:cx="422.10483"
     inkscape:cy="153.97148"
     inkscape:document-units="mm"
     inkscape:current-layer="layer1"
     inkscape:document-rotation="0"
     showgrid="false"
     inkscape:window-width="1366"
     inkscape:window-height="749"
     inkscape:window-x="0"
     inkscape:window-y="0"
     inkscape:window-maximized="0" />
  <metadata
     id="metadata115">
    <rdf:RDF>
      <cc:Work
         rdf:about="">
        <dc:format>image/svg+xml</dc:format>
        <dc:type
           rdf:resource="http://purl.org/dc/dcmitype/StillImage" />
        <dc:title></dc:title>
      </cc:Work>
    </rdf:RDF>
  </metadata>
  <g
     inkscape:label="Layer 1"
     inkscape:groupmode="layer"
     id="layer1">
    <g
       id="g158"
       transform="matrix(1.1813827,0,0,1.0846599,-174.59686,-15.658511)"
       inkscape:export-xdpi="96"
       inkscape:export-ydpi="96">
      <g
         id="g15450"
         transform="matrix(0.32851033,0,0,0.25902814,138.49585,-13.530789)"
         style="fill:#338000">
        <g
           aria-label="o"
           id="text878"
           style="font-size:10.5833px;line-height:1.25;fill:#338000;stroke-width:0.264583"
           transform="matrix(10.686351,0,0,9.9912854,373.65984,-1678.7367)">
          <path
             d="m -24.668385,186.67592 c -0.682926,1.35299 -2.357696,1.39305 -3.169083,1.39305 -0.500943,0 -2.967204,0.0139 -3.354809,-1.48872 0.893352,-0.11895 0.09734,-0.89578 -0.02083,-1.97736 1.138703,-0.0245 0.36878,-0.37832 0.451495,-1.43683 0.660495,0.56829 0.831762,-0.10068 1.440689,-0.46021 0.950639,-3e-4 0.528308,0.007 1.357402,0.006 0.805327,-7.9e-4 0.653339,-0.0137 1.290335,0.0969 0.657612,0.23223 0.809918,0.78934 1.383449,0.33394 0.0095,0.93589 -0.569357,1.6802 0.68431,1.52236 -0.186038,1.08427 -0.942695,1.64601 -0.06296,2.01087 z m -5.004633,-1.28138 c 0.12943,0.92442 0.117518,0.84121 0.404591,1.2224 0.26811,0.38805 0.873572,0.67948 1.452126,0.67948 0.571498,0 1.069358,-0.20794 1.337469,-0.59599 0.26811,-0.39511 0.506901,-1.04653 0.535921,-1.73115 0.02042,-0.48166 -0.345867,-1.04894 -0.613977,-1.42993 -0.268111,-0.381 -0.691443,-0.5715 -1.269996,-0.5715 -0.578554,0 -1.324459,0.5715 -1.324459,0.5715 0,0 -0.692282,0.63666 -0.521675,1.85519 z"
             id="path2214"
             sodipodi:nodetypes="ssccccsccccscscscscsc"
             style="fill:#338000" />
        </g>
        <path
           id="path13327"
           style="fill:#338000;stroke:none;stroke-width:0.865513;stroke-miterlimit:4;stroke-dasharray:none;stroke-opacity:1"
           d="m 77.094506,147.81593 a 21.860248,23.553642 0 0 0 -22.230683,21.13979 21.860248,23.553642 0 0 0 19.386931,25.82375 21.860248,23.553642 0 0 0 24.077603,-20.74085 l 0.0512,-0.53434 A 21.860248,23.553642 0 0 0 78.720805,147.9198 21.860248,23.553642 0 0 0 77.094546,147.81593 Z" />
      </g>
      <rect
         style="fill:#c87137;stroke:none;stroke-width:0.0638626;stroke-miterlimit:4;stroke-dasharray:none;stroke-opacity:1"
         id="rect3068"
         width="24.809654"
         height="2.5445819"
         x="150.47363"
         y="36.370472"
         ry="0.10602422"
         rx="0.10602422" />
      <g
         id="g3216"
         transform="matrix(0.2788757,0,0,0.2788757,112.31753,-19.21564)"
         style="stroke:none">
        <rect
           style="fill:#c87137;stroke:none;stroke-width:0.195915"
           id="rect2962"
           width="37.385731"
           height="25.738712"
           x="373.59988"
           y="284.07681"
           ry="0.37851039"
           transform="matrix(1,0,-0.67939964,0.73376844,0,0)"
           rx="0.37851039" />
        <rect
           style="fill:#c87137;stroke:none;stroke-width:0.195915"
           id="rect3044"
           width="37.385731"
           height="25.738714"
           x="9.9915533"
           y="284.07681"
           ry="0.37851039"
           transform="matrix(-1,0,0.67939967,0.73376841,0,0)"
           rx="0.37851039" />
      </g>
      <path
         id="path17221"
         style="fill:#db2d2a;fill-opacity:1;stroke:none;stroke-width:0.100423px;stroke-linecap:butt;stroke-linejoin:miter;stroke-opacity:1"
         d="m 163.24321,16.362749 -1.50505,2.885909 c -2.20479,-1.724066 -1.63335,-1.248176 -2.52934,-1.967079 l 2.36859,3.666552 -4.58791,-3.558729 2.39973,3.235066 -2.75356,0.215839 3.67122,2.63562 -5.06669,0.383998 7.70387,1.509323 z m -0.29914,9.006499 7.70385,-1.509323 -4.8123,-0.36473 4.09647,-2.654888 -2.73332,-0.215839 2.87715,-3.235066 -5.12059,3.558729 2.90808,-3.666552 -3.01047,2.156841 -1.60856,-3.075671 z" />
    </g>
  </g>
</svg>
